<svg xmlns="http://www.w3.org/2000/svg" width="24" height="24" fill="none" viewBox="0 0 24 24" id="link-off">
  <path fill="#C4E6FF" d="M12.7573 18C12.4921 18 12.2377 17.8946 12.0502 17.7071L2.44153 8.09841C3.10678 7.32188 3.96702 6.71732 4.94636 6.3606L16.5857 18H12.7573Z"></path>
  <path fill="#024493" fill-rule="evenodd" d="M14 7C14 6.44772 14.4477 6 15 6H17C20.3137 6 23 8.68629 23 12C23 13.3498 22.5531 14.5982 21.7995 15.6012C21.4678 16.0427 20.8409 16.1317 20.3993 15.8C19.9578 15.4682 19.8688 14.8414 20.2005 14.3998C20.7028 13.7313 21 12.9018 21 12C21 9.79086 19.2091 8 17 8H15C14.4477 8 14 7.55228 14 7ZM9.58579 11H6C5.44772 11 5 11.4477 5 12C5 12.5523 5.44772 13 6 13H11.5858L9.58579 11ZM1 12C1 9.40759 2.64407 7.1992 4.94642 6.3606L6.60504 8.01921C4.5813 8.21757 3 9.9241 3 12C3 14.2091 4.79086 16 7 16H9C9.55228 16 10 16.4477 10 17C10 17.5522 9.55228 18 9 18H7C3.68629 18 1 15.3137 1 12Z" clip-rule="evenodd"></path>
  <path fill="#1E93FF" fill-rule="evenodd" d="M1.29289 1.29289C1.68342 0.902369 2.31658 0.902369 2.70711 1.29289L22.7071 21.2929C23.0976 21.6834 23.0976 22.3166 22.7071 22.7071C22.3166 23.0976 21.6834 23.0976 21.2929 22.7071L1.29289 2.70711C0.902369 2.31658 0.902369 1.68342 1.29289 1.29289Z" clip-rule="evenodd"></path>
</svg>
